<svg xmlns="http://www.w3.org/2000/svg" viewBox="0 0 160 130">
  <defs>
    <style>
      .cls-1, .cls-4 {
        fill: #fff;
      }

      .cls-2 {
        fill: #8b8b8b;
        font-size: 18px;
        font-family: OpenSans-Semibold, Open Sans;
        font-weight: 600;
      }

      .cls-3 {
        fill: #605751;
      }

      .cls-4 {
        stroke: #ec7404;
        stroke-linejoin: round;
        stroke-width: 1.8px;
      }

      .cls-5, .cls-6 {
        stroke: none;
      }

      .cls-6 {
        fill: #d6d4d2;
      }

      .cls-7 {
        fill: none;
      }
    </style>
  </defs>
  <g id="icono_empleado_off" transform="translate(-559 -2246)">
    <g id="Group_24" data-name="Group 24" transform="translate(195 1726)">
      <g id="Path_14" data-name="Path 14" class="cls-1" transform="translate(396 520)">
        <path class="cls-5" d="M 75 94 L 20 94 C 17.43457412719727 94 14.94641208648682 93.49778747558594 12.60464954376221 92.50730133056641 C 10.34226226806641 91.55038452148438 8.310212135314941 90.18027496337891 6.564974784851074 88.43502807617188 C 4.819725036621094 86.68978881835938 3.449612617492676 84.65773773193359 2.492700099945068 82.39534759521484 C 1.502212524414062 80.0535888671875 1 77.56542205810547 1 75 L 1 20 C 1 17.43457412719727 1.502212524414062 14.94641208648682 2.492700099945068 12.60464954376221 C 3.449612617492676 10.34226226806641 4.819725036621094 8.310212135314941 6.564974784851074 6.564974784851074 C 8.310212135314941 4.819725036621094 10.34226226806641 3.449612617492676 12.60464954376221 2.492700099945068 C 14.94641208648682 1.502212524414062 17.43457412719727 1 20 1 L 75 1 C 77.56542205810547 1 80.0535888671875 1.502212524414062 82.39534759521484 2.492700099945068 C 84.65773773193359 3.449612617492676 86.68978881835938 4.819725036621094 88.43502807617188 6.564974784851074 C 90.18027496337891 8.310212135314941 91.55038452148438 10.34226226806641 92.50730133056641 12.60464954376221 C 93.49778747558594 14.94641208648682 94 17.43457412719727 94 20 L 94 75 C 94 77.56542205810547 93.49778747558594 80.0535888671875 92.50730133056641 82.39534759521484 C 91.55038452148438 84.65773773193359 90.18027496337891 86.68978881835938 88.43502807617188 88.43502807617188 C 86.68978881835938 90.18027496337891 84.65773773193359 91.55038452148438 82.39534759521484 92.50730133056641 C 80.0535888671875 93.49778747558594 77.56542205810547 94 75 94 Z"/>
        <path class="cls-6" d="M 20 2 C 15.19203186035156 2 10.67182922363281 3.872329711914062 7.272071838378906 7.272071838378906 C 3.872329711914062 10.67182922363281 2 15.19203186035156 2 20 L 2 75 C 2 79.80796813964844 3.872329711914062 84.32817077636719 7.272071838378906 87.72791290283203 C 10.67182922363281 91.12767028808594 15.19203186035156 93 20 93 L 75 93 C 79.80796813964844 93 84.32817077636719 91.12767028808594 87.72791290283203 87.72791290283203 C 91.12767028808594 84.32817077636719 93 79.80796813964844 93 75 L 93 20 C 93 15.19203186035156 91.12767028808594 10.67182922363281 87.72791290283203 7.272071838378906 C 84.32817077636719 3.872329711914062 79.80796813964844 2 75 2 L 20 2 M 20 0 L 75 0 C 86.04568481445312 0 95 8.954299926757812 95 20 L 95 75 C 95 86.04568481445312 86.04568481445312 95 75 95 L 20 95 C 8.954299926757812 95 0 86.04568481445312 0 75 L 0 20 C 0 8.954299926757812 8.954299926757812 0 20 0 Z"/>
      </g>
      <text id="Empleado" class="cls-2" transform="translate(364 626)"><tspan x="36.745" y="19">Empleado</tspan></text>
    </g>
    <path id="untitled388" class="cls-3" d="M29,6H22A6,6,0,0,0,10,6H3A3.01,3.01,0,0,0,0,9v7a3.008,3.008,0,0,0,2,2.823V29a3.008,3.008,0,0,0,3,3H27a3.009,3.009,0,0,0,3-3V18.824A3.009,3.009,0,0,0,32,16V9a3.008,3.008,0,0,0-3-3ZM16,2a4,4,0,0,1,4,4H12A4,4,0,0,1,16,2ZM27,30H5a1,1,0,0,1-1-1V19h8.5v1A1.571,1.571,0,0,0,14,21.5h4A1.572,1.572,0,0,0,19.5,20V19H28V29A1,1,0,0,1,27,30ZM14.5,19.5v-3h3v3ZM30,16a1,1,0,0,1-1,1H19.5V16A1.572,1.572,0,0,0,18,14.5H14A1.571,1.571,0,0,0,12.5,16v1H3a1,1,0,0,1-1-1V9A1,1,0,0,1,3,8H29a1,1,0,0,1,1,1Z" transform="translate(622 2275)"/>
    <g id="Rectangle_27" data-name="Rectangle 27" class="cls-4" transform="translate(636 2291)">
      <rect class="cls-5" width="4" height="4"/>
      <rect class="cls-7" x="-0.9" y="-0.9" width="5.8" height="5.8"/>
    </g>
  </g>
</svg>
