<svg xmlns="http://www.w3.org/2000/svg" viewBox="0 0 160 130">
  <defs>
    <style>
      .cls-1 {
        fill: #605751;
      }

      .cls-2 {
        fill: #8b8b8b;
        font-size: 18px;
        font-family: OpenSans-Semibold, Open Sans;
        font-weight: 600;
      }

      .cls-3, .cls-4 {
        fill: #fff;
      }

      .cls-4 {
        stroke: #fff;
        stroke-linejoin: round;
        stroke-width: 1.8px;
      }

      .cls-5 {
        stroke: none;
      }

      .cls-6 {
        fill: none;
      }
    </style>
  </defs>
  <g id="icono_empleado_on" transform="translate(-559 -2246)">
    <g id="Group_24" data-name="Group 24" transform="translate(195 1726)">
      <path id="Path_14" data-name="Path 14" class="cls-1" d="M20,0H75A20,20,0,0,1,95,20V75A20,20,0,0,1,75,95H20A20,20,0,0,1,0,75V20A20,20,0,0,1,20,0Z" transform="translate(396 520)"/>
      <text id="Empleado" class="cls-2" transform="translate(364 626)"><tspan x="36.745" y="19">Empleado</tspan></text>
    </g>
    <path id="untitled388" class="cls-3" d="M29,6H22A6,6,0,0,0,10,6H3A3.01,3.01,0,0,0,0,9v7a3.008,3.008,0,0,0,2,2.823V29a3.008,3.008,0,0,0,3,3H27a3.009,3.009,0,0,0,3-3V18.824A3.009,3.009,0,0,0,32,16V9a3.008,3.008,0,0,0-3-3ZM16,2a4,4,0,0,1,4,4H12A4,4,0,0,1,16,2ZM27,30H5a1,1,0,0,1-1-1V19h8.5v1A1.571,1.571,0,0,0,14,21.5h4A1.572,1.572,0,0,0,19.5,20V19H28V29A1,1,0,0,1,27,30ZM14.5,19.5v-3h3v3ZM30,16a1,1,0,0,1-1,1H19.5V16A1.572,1.572,0,0,0,18,14.5H14A1.571,1.571,0,0,0,12.5,16v1H3a1,1,0,0,1-1-1V9A1,1,0,0,1,3,8H29a1,1,0,0,1,1,1Z" transform="translate(622 2275)"/>
    <g id="Rectangle_27" data-name="Rectangle 27" class="cls-4" transform="translate(636 2291)">
      <rect class="cls-5" width="4" height="4"/>
      <rect class="cls-6" x="-0.9" y="-0.9" width="5.8" height="5.8"/>
    </g>
  </g>
</svg>
