<svg xmlns="http://www.w3.org/2000/svg" viewBox="0 0 160 130">
  <defs>
    <style>
      .cls-1 {
        fill: #605751;
      }

      .cls-2 {
        fill: #8b8b8b;
        font-size: 18px;
        font-family: OpenSans-Semibold, Open Sans;
        font-weight: 600;
      }

      .cls-3 {
        fill: #fff;
      }
    </style>
  </defs>
  <g id="icono_hogar_on" transform="translate(-373 -2246)">
    <g id="Group_23" data-name="Group 23" transform="translate(9 1726)">
      <path id="Path_14" data-name="Path 14" class="cls-1" d="M20,0H75A20,20,0,0,1,95,20V75A20,20,0,0,1,75,95H20A20,20,0,0,1,0,75V20A20,20,0,0,1,20,0Z" transform="translate(396 520)"/>
      <text id="Hogar" class="cls-2" transform="translate(364 626)"><tspan x="53.637" y="19">Hogar</tspan></text>
    </g>
    <path id="untitled561" class="cls-3" d="M16,15.958a3.515,3.515,0,0,0-4.949.124,3.769,3.769,0,0,0,0,5.224l4.287,4.412a.918.918,0,0,0,1.324,0l4.286-4.412a3.769,3.769,0,0,0,0-5.224A3.514,3.514,0,0,0,16,15.958Zm3.624,1.487a1.8,1.8,0,0,1,0,2.5L16,23.673l-3.625-3.73a1.807,1.807,0,0,1,0-2.5,1.683,1.683,0,0,1,2.427,0,1.726,1.726,0,0,1,.344.526.936.936,0,0,0,.853.567h0a.934.934,0,0,0,.853-.567,1.746,1.746,0,0,1,.345-.527,1.723,1.723,0,0,1,2.427,0Zm11.583-2.652-3.5-3.5,0,0-11-11a1,1,0,0,0-1.414,0l-11,11s0,0,0,0l-3.5,3.5a1,1,0,0,0,1.415,1.414L4,14.414V28.5A3.5,3.5,0,0,0,7.5,32h17A3.5,3.5,0,0,0,28,28.5V14.414l1.793,1.793a1,1,0,1,0,1.414-1.414ZM26,28.5A1.5,1.5,0,0,1,24.5,30H7.5A1.5,1.5,0,0,1,6,28.5V12.414l10-10,10,10Z" transform="translate(438.5 2276)"/>
    <path id="untitled561-2" data-name="untitled561" class="cls-3" d="M16,15.958a3.515,3.515,0,0,0-4.949.124,3.769,3.769,0,0,0,0,5.224l4.287,4.412a.918.918,0,0,0,1.324,0l4.286-4.412a3.769,3.769,0,0,0,0-5.224A3.514,3.514,0,0,0,16,15.958Zm3.624,1.487a1.8,1.8,0,0,1,0,2.5L16,23.673l-3.625-3.73a1.807,1.807,0,0,1,0-2.5,1.683,1.683,0,0,1,2.427,0,1.726,1.726,0,0,1,.344.526.936.936,0,0,0,.853.567h0a.934.934,0,0,0,.853-.567,1.746,1.746,0,0,1,.345-.527,1.723,1.723,0,0,1,2.427,0Z" transform="translate(438.5 2276)"/>
  </g>
</svg>
