<svg xmlns="http://www.w3.org/2000/svg" viewBox="0 0 160 130">
  <defs>
    <style>
      .cls-1 {
        fill: #605751;
      }

      .cls-2 {
        fill: #8b8b8b;
        font-size: 18px;
        font-family: OpenSans-Semibold, Open Sans;
        font-weight: 600;
      }

      .cls-3 {
        fill: #fff;
      }

      .cls-4 {
        fill: none;
        stroke: #fff;
        stroke-width: 1.8px;
      }

      .cls-5, .cls-6 {
        stroke: none;
      }

      .cls-6 {
        fill: #d6d4d2;
      }
    </style>
  </defs>
  <g id="icono_pensionado_on" transform="translate(-931 -2246)">
    <g id="Group_26" data-name="Group 26" transform="translate(567 1726)">
      <g id="Path_14" data-name="Path 14" class="cls-1" transform="translate(396 520)">
        <path class="cls-5" d="M 75 94 L 20 94 C 17.43457412719727 94 14.94641208648682 93.49778747558594 12.60464954376221 92.50730133056641 C 10.34226226806641 91.55038452148438 8.310212135314941 90.18027496337891 6.564974784851074 88.43502807617188 C 4.819725036621094 86.68978881835938 3.449612617492676 84.65773773193359 2.492700099945068 82.39534759521484 C 1.502212524414062 80.0535888671875 1 77.56542205810547 1 75 L 1 20 C 1 17.43457412719727 1.502212524414062 14.94641208648682 2.492700099945068 12.60464954376221 C 3.449612617492676 10.34226226806641 4.819725036621094 8.310212135314941 6.564974784851074 6.564974784851074 C 8.310212135314941 4.819725036621094 10.34226226806641 3.449612617492676 12.60464954376221 2.492700099945068 C 14.94641208648682 1.502212524414062 17.43457412719727 1 20 1 L 75 1 C 77.56542205810547 1 80.0535888671875 1.502212524414062 82.39534759521484 2.492700099945068 C 84.65773773193359 3.449612617492676 86.68978881835938 4.819725036621094 88.43502807617188 6.564974784851074 C 90.18027496337891 8.310212135314941 91.55038452148438 10.34226226806641 92.50730133056641 12.60464954376221 C 93.49778747558594 14.94641208648682 94 17.43457412719727 94 20 L 94 75 C 94 77.56542205810547 93.49778747558594 80.0535888671875 92.50730133056641 82.39534759521484 C 91.55038452148438 84.65773773193359 90.18027496337891 86.68978881835938 88.43502807617188 88.43502807617188 C 86.68978881835938 90.18027496337891 84.65773773193359 91.55038452148438 82.39534759521484 92.50730133056641 C 80.0535888671875 93.49778747558594 77.56542205810547 94 75 94 Z"/>
        <path class="cls-6" d="M 20 2 C 15.19203186035156 2 10.67182922363281 3.872329711914062 7.272071838378906 7.272071838378906 C 3.872329711914062 10.67182922363281 2 15.19203186035156 2 20 L 2 75 C 2 79.80796813964844 3.872329711914062 84.32817077636719 7.272071838378906 87.72791290283203 C 10.67182922363281 91.12767028808594 15.19203186035156 93 20 93 L 75 93 C 79.80796813964844 93 84.32817077636719 91.12767028808594 87.72791290283203 87.72791290283203 C 91.12767028808594 84.32817077636719 93 79.80796813964844 93 75 L 93 20 C 93 15.19203186035156 91.12767028808594 10.67182922363281 87.72791290283203 7.272071838378906 C 84.32817077636719 3.872329711914062 79.80796813964844 2 75 2 L 20 2 M 20 0 L 75 0 C 86.04568481445312 0 95 8.954299926757812 95 20 L 95 75 C 95 86.04568481445312 86.04568481445312 95 75 95 L 20 95 C 8.954299926757812 95 0 86.04568481445312 0 75 L 0 20 C 0 8.954299926757812 8.954299926757812 0 20 0 Z"/>
      </g>
      <text id="Pensionado" class="cls-2" transform="translate(364 626)"><tspan x="29.138" y="19">Pensionado</tspan></text>
    </g>
    <path id="untitled121" class="cls-3" d="M9,10A5,5,0,1,0,4,5,5.006,5.006,0,0,0,9,10ZM9,2A3,3,0,1,1,6,5,3,3,0,0,1,9,2Zm8.044,14A8.988,8.988,0,0,0,0,20a1,1,0,0,0,1,1H3.5v6a1,1,0,0,0,1,1h5.582a8,8,0,1,0,6.962-12ZM5.5,26V20a1,1,0,0,0-1-1H2.071a7,7,0,0,1,12.856-2.718A7.951,7.951,0,0,0,9.262,26H5.5ZM17,30a6,6,0,1,1,6-6A6.007,6.007,0,0,1,17,30Zm2.852-7.134-1.846-.281-.826-1.753a.183.183,0,0,0-.336,0l-.825,1.753-1.846.281a.191.191,0,0,0-.152.134.2.2,0,0,0,.047.2L15.4,24.565l-.315,1.927a.2.2,0,0,0,.073.192.177.177,0,0,0,.2.015l1.651-.91,1.651.91a.186.186,0,0,0,.087.023.178.178,0,0,0,.111-.038.2.2,0,0,0,.074-.192l-.315-1.927L19.954,23.2A.2.2,0,0,0,20,23a.192.192,0,0,0-.152-.134Z" transform="translate(999 2277)"/>
    <circle id="Ellipse_7" data-name="Ellipse 7" class="cls-4" cx="7" cy="7" r="7" transform="translate(1009 2294)"/>
  </g>
</svg>
