<svg xmlns="http://www.w3.org/2000/svg" viewBox="0 0 172 129">
  <defs>
    <style>
      .cls-1 {
        fill: #605751;
      }

      .cls-2 {
        fill: #8b8b8b;
        font-size: 16px;
        font-family: OpenSans-Semibold, Open Sans;
        font-weight: 600;
      }

      .cls-3 {
        fill: #fff;
      }

      .cls-4, .cls-5 {
        stroke: none;
      }

      .cls-5 {
        fill: #d6d4d2;
      }
    </style>
  </defs>
  <g id="icono_pagoservicios_on" transform="translate(-971 -5346)">
    <g id="Group_31" data-name="Group 31" transform="translate(613 4826)">
      <g id="Path_14" data-name="Path 14" class="cls-1" transform="translate(396 520)">
        <path class="cls-4" d="M 75 94 L 20 94 C 17.43457412719727 94 14.94641208648682 93.49778747558594 12.60464954376221 92.50730133056641 C 10.34226226806641 91.55038452148438 8.310212135314941 90.18027496337891 6.564974784851074 88.43502807617188 C 4.819725036621094 86.68978881835938 3.449612617492676 84.65773773193359 2.492700099945068 82.39534759521484 C 1.502212524414062 80.0535888671875 1 77.56542205810547 1 75 L 1 20 C 1 17.43457412719727 1.502212524414062 14.94641208648682 2.492700099945068 12.60464954376221 C 3.449612617492676 10.34226226806641 4.819725036621094 8.310212135314941 6.564974784851074 6.564974784851074 C 8.310212135314941 4.819725036621094 10.34226226806641 3.449612617492676 12.60464954376221 2.492700099945068 C 14.94641208648682 1.502212524414062 17.43457412719727 1 20 1 L 75 1 C 77.56542205810547 1 80.0535888671875 1.502212524414062 82.39534759521484 2.492700099945068 C 84.65773773193359 3.449612617492676 86.68978881835938 4.819725036621094 88.43502807617188 6.564974784851074 C 90.18027496337891 8.310212135314941 91.55038452148438 10.34226226806641 92.50730133056641 12.60464954376221 C 93.49778747558594 14.94641208648682 94 17.43457412719727 94 20 L 94 75 C 94 77.56542205810547 93.49778747558594 80.0535888671875 92.50730133056641 82.39534759521484 C 91.55038452148438 84.65773773193359 90.18027496337891 86.68978881835938 88.43502807617188 88.43502807617188 C 86.68978881835938 90.18027496337891 84.65773773193359 91.55038452148438 82.39534759521484 92.50730133056641 C 80.0535888671875 93.49778747558594 77.56542205810547 94 75 94 Z"/>
        <path class="cls-5" d="M 20 2 C 15.19203186035156 2 10.67182922363281 3.872329711914062 7.272071838378906 7.272071838378906 C 3.872329711914062 10.67182922363281 2 15.19203186035156 2 20 L 2 75 C 2 79.80796813964844 3.872329711914062 84.32817077636719 7.272071838378906 87.72791290283203 C 10.67182922363281 91.12767028808594 15.19203186035156 93 20 93 L 75 93 C 79.80796813964844 93 84.32817077636719 91.12767028808594 87.72791290283203 87.72791290283203 C 91.12767028808594 84.32817077636719 93 79.80796813964844 93 75 L 93 20 C 93 15.19203186035156 91.12767028808594 10.67182922363281 87.72791290283203 7.272071838378906 C 84.32817077636719 3.872329711914062 79.80796813964844 2 75 2 L 20 2 M 20 0 L 75 0 C 86.04568481445312 0 95 8.954299926757812 95 20 L 95 75 C 95 86.04568481445312 86.04568481445312 95 75 95 L 20 95 C 8.954299926757812 95 0 86.04568481445312 0 75 L 0 20 C 0 8.954299926757812 8.954299926757812 0 20 0 Z"/>
      </g>
      <text id="Pago_de_servicios" data-name="Pago de servicios" class="cls-2" transform="translate(358 625)"><tspan x="19.914" y="17">Pago de servicios</tspan></text>
    </g>
    <path id="untitled397_1_" class="cls-3" d="M11,7.5H5a.945.945,0,0,0-1,1,.945.945,0,0,0,1,1h6a.945.945,0,0,0,1-1A.945.945,0,0,0,11,7.5Zm0,4H5a1,1,0,0,0,0,2h6a1,1,0,0,0,0-2Zm0,4H5a1,1,0,0,0,0,2h6a1,1,0,0,0,0-2Zm6-8H15a.945.945,0,0,0-1,1,.945.945,0,0,0,1,1h2a.945.945,0,0,0,1-1A.945.945,0,0,0,17,7.5Zm0,4H15a1,1,0,0,0,0,2h2a1,1,0,0,0,0-2Zm0,4H15a1,1,0,0,0,0,2h2a1,1,0,0,0,0-2Zm0,5H15a1,1,0,0,0,0,2h2a1,1,0,0,0,0-2ZM21.6,1.7,19.6.2a.913.913,0,0,0-1.2,0L17,1.2,15.6.2a.912.912,0,0,0-1.2,0L13,1.2,11.6.2a.912.912,0,0,0-1.2,0L9,1.2,7.6.2A.913.913,0,0,0,6.4.2L5,1.2,3.6.2A.913.913,0,0,0,2.4.2L.4,1.7a.909.909,0,0,0-.4.8v27a.909.909,0,0,0,.4.8l2,1.5a.913.913,0,0,0,1.2,0l1.4-1,1.4,1a.913.913,0,0,0,1.2,0l1.4-1,1.4,1a.913.913,0,0,0,1.2,0l1.4-1,1.4,1a.913.913,0,0,0,1.2,0l1.4-1,1.4,1a.913.913,0,0,0,1.2,0l2-1.5a.909.909,0,0,0,.4-.8V2.5A.909.909,0,0,0,21.6,1.7ZM20,29l-1,.8-1.4-1a.913.913,0,0,0-1.2,0l-1.4,1-1.4-1a.913.913,0,0,0-1.2,0l-1.4,1-1.4-1a.913.913,0,0,0-1.2,0L7,29.8l-1.4-1a.913.913,0,0,0-1.2,0L3,29.8,2,29V3l1-.8,1.4,1a.913.913,0,0,0,1.2,0L7,2.2l1.4,1a.912.912,0,0,0,1.2,0l1.4-1,1.4,1a.912.912,0,0,0,1.2,0l1.4-1,1.4,1a.913.913,0,0,0,1.2,0l1.4-1L20,3Z" transform="translate(1046 5377.025)"/>
    <path id="untitled397_1_2" data-name="untitled397_1_" class="cls-3" d="M11,7.5H5a.945.945,0,0,0-1,1,.945.945,0,0,0,1,1h6a.945.945,0,0,0,1-1A.945.945,0,0,0,11,7.5Zm0,4H5a1,1,0,0,0,0,2h6a1,1,0,0,0,0-2Zm0,4H5a1,1,0,0,0,0,2h6a1,1,0,0,0,0-2Zm6-8H15a.945.945,0,0,0-1,1,.945.945,0,0,0,1,1h2a.945.945,0,0,0,1-1A.945.945,0,0,0,17,7.5Zm0,4H15a1,1,0,0,0,0,2h2a1,1,0,0,0,0-2Zm0,4H15a1,1,0,0,0,0,2h2a1,1,0,0,0,0-2Z" transform="translate(1046 5377.025)"/>
  </g>
</svg>
