<svg xmlns="http://www.w3.org/2000/svg" viewBox="0 0 160 130">
  <defs>
    <style>
      .cls-1 {
        fill: #fff;
      }

      .cls-2 {
        fill: #8b8b8b;
        font-size: 18px;
        font-family: OpenSans-Semibold, Open Sans;
        font-weight: 600;
      }

      .cls-3 {
        fill: #605751;
      }

      .cls-4 {
        fill: #ec7404;
      }

      .cls-5, .cls-6 {
        stroke: none;
      }

      .cls-6 {
        fill: #d6d4d2;
      }
    </style>
  </defs>
  <g id="icono_hogar_off" transform="translate(-373 -2246)">
    <g id="Group_23" data-name="Group 23" transform="translate(9 1726)">
      <g id="Path_14" data-name="Path 14" class="cls-1" transform="translate(396 520)">
        <path class="cls-5" d="M 75 94 L 20 94 C 17.43457412719727 94 14.94641208648682 93.49778747558594 12.60464954376221 92.50730133056641 C 10.34226226806641 91.55038452148438 8.310212135314941 90.18027496337891 6.564974784851074 88.43502807617188 C 4.819725036621094 86.68978881835938 3.449612617492676 84.65773773193359 2.492700099945068 82.39534759521484 C 1.502212524414062 80.0535888671875 1 77.56542205810547 1 75 L 1 20 C 1 17.43457412719727 1.502212524414062 14.94641208648682 2.492700099945068 12.60464954376221 C 3.449612617492676 10.34226226806641 4.819725036621094 8.310212135314941 6.564974784851074 6.564974784851074 C 8.310212135314941 4.819725036621094 10.34226226806641 3.449612617492676 12.60464954376221 2.492700099945068 C 14.94641208648682 1.502212524414062 17.43457412719727 1 20 1 L 75 1 C 77.56542205810547 1 80.0535888671875 1.502212524414062 82.39534759521484 2.492700099945068 C 84.65773773193359 3.449612617492676 86.68978881835938 4.819725036621094 88.43502807617188 6.564974784851074 C 90.18027496337891 8.310212135314941 91.55038452148438 10.34226226806641 92.50730133056641 12.60464954376221 C 93.49778747558594 14.94641208648682 94 17.43457412719727 94 20 L 94 75 C 94 77.56542205810547 93.49778747558594 80.0535888671875 92.50730133056641 82.39534759521484 C 91.55038452148438 84.65773773193359 90.18027496337891 86.68978881835938 88.43502807617188 88.43502807617188 C 86.68978881835938 90.18027496337891 84.65773773193359 91.55038452148438 82.39534759521484 92.50730133056641 C 80.0535888671875 93.49778747558594 77.56542205810547 94 75 94 Z"/>
        <path class="cls-6" d="M 20 2 C 15.19203186035156 2 10.67182922363281 3.872329711914062 7.272071838378906 7.272071838378906 C 3.872329711914062 10.67182922363281 2 15.19203186035156 2 20 L 2 75 C 2 79.80796813964844 3.872329711914062 84.32817077636719 7.272071838378906 87.72791290283203 C 10.67182922363281 91.12767028808594 15.19203186035156 93 20 93 L 75 93 C 79.80796813964844 93 84.32817077636719 91.12767028808594 87.72791290283203 87.72791290283203 C 91.12767028808594 84.32817077636719 93 79.80796813964844 93 75 L 93 20 C 93 15.19203186035156 91.12767028808594 10.67182922363281 87.72791290283203 7.272071838378906 C 84.32817077636719 3.872329711914062 79.80796813964844 2 75 2 L 20 2 M 20 0 L 75 0 C 86.04568481445312 0 95 8.954299926757812 95 20 L 95 75 C 95 86.04568481445312 86.04568481445312 95 75 95 L 20 95 C 8.954299926757812 95 0 86.04568481445312 0 75 L 0 20 C 0 8.954299926757812 8.954299926757812 0 20 0 Z"/>
      </g>
      <text id="Hogar" class="cls-2" transform="translate(364 626)"><tspan x="53.637" y="19">Hogar</tspan></text>
    </g>
    <path id="untitled561" class="cls-3" d="M16,15.958a3.515,3.515,0,0,0-4.949.124,3.769,3.769,0,0,0,0,5.224l4.287,4.412a.918.918,0,0,0,1.324,0l4.286-4.412a3.769,3.769,0,0,0,0-5.224A3.514,3.514,0,0,0,16,15.958Zm3.624,1.487a1.8,1.8,0,0,1,0,2.5L16,23.673l-3.625-3.73a1.807,1.807,0,0,1,0-2.5,1.683,1.683,0,0,1,2.427,0,1.726,1.726,0,0,1,.344.526.936.936,0,0,0,.853.567h0a.934.934,0,0,0,.853-.567,1.746,1.746,0,0,1,.345-.527,1.723,1.723,0,0,1,2.427,0Zm11.583-2.652-3.5-3.5,0,0-11-11a1,1,0,0,0-1.414,0l-11,11s0,0,0,0l-3.5,3.5a1,1,0,0,0,1.415,1.414L4,14.414V28.5A3.5,3.5,0,0,0,7.5,32h17A3.5,3.5,0,0,0,28,28.5V14.414l1.793,1.793a1,1,0,1,0,1.414-1.414ZM26,28.5A1.5,1.5,0,0,1,24.5,30H7.5A1.5,1.5,0,0,1,6,28.5V12.414l10-10,10,10Z" transform="translate(438.5 2276)"/>
    <path id="untitled561-2" data-name="untitled561" class="cls-4" d="M16,15.958a3.515,3.515,0,0,0-4.949.124,3.769,3.769,0,0,0,0,5.224l4.287,4.412a.918.918,0,0,0,1.324,0l4.286-4.412a3.769,3.769,0,0,0,0-5.224A3.514,3.514,0,0,0,16,15.958Zm3.624,1.487a1.8,1.8,0,0,1,0,2.5L16,23.673l-3.625-3.73a1.807,1.807,0,0,1,0-2.5,1.683,1.683,0,0,1,2.427,0,1.726,1.726,0,0,1,.344.526.936.936,0,0,0,.853.567h0a.934.934,0,0,0,.853-.567,1.746,1.746,0,0,1,.345-.527,1.723,1.723,0,0,1,2.427,0Z" transform="translate(438.5 2276)"/>
  </g>
</svg>
