<svg xmlns="http://www.w3.org/2000/svg" viewBox="0 0 160 130">
  <defs>
    <style>
      .cls-1, .cls-5 {
        fill: #fff;
      }

      .cls-2 {
        fill: #8b8b8b;
      }

      .cls-2, .cls-4 {
        font-size: 18px;
        font-family: OpenSans-Semibold, Open Sans;
        font-weight: 600;
      }

      .cls-3, .cls-4 {
        fill: #605751;
      }

      .cls-6, .cls-7 {
        stroke: none;
      }

      .cls-7 {
        fill: #d6d4d2;
      }
    </style>
  </defs>
  <g id="icono_independiente_on" transform="translate(-745 -2246)">
    <g id="Group_25" data-name="Group 25" transform="translate(381 1726)">
      <g id="Path_14" data-name="Path 14" class="cls-1" transform="translate(396 520)">
        <path class="cls-6" d="M 75 94 L 20 94 C 17.43457412719727 94 14.94641208648682 93.49778747558594 12.60464954376221 92.50730133056641 C 10.34226226806641 91.55038452148438 8.310212135314941 90.18027496337891 6.564974784851074 88.43502807617188 C 4.819725036621094 86.68978881835938 3.449612617492676 84.65773773193359 2.492700099945068 82.39534759521484 C 1.502212524414062 80.0535888671875 1 77.56542205810547 1 75 L 1 20 C 1 17.43457412719727 1.502212524414062 14.94641208648682 2.492700099945068 12.60464954376221 C 3.449612617492676 10.34226226806641 4.819725036621094 8.310212135314941 6.564974784851074 6.564974784851074 C 8.310212135314941 4.819725036621094 10.34226226806641 3.449612617492676 12.60464954376221 2.492700099945068 C 14.94641208648682 1.502212524414062 17.43457412719727 1 20 1 L 75 1 C 77.56542205810547 1 80.0535888671875 1.502212524414062 82.39534759521484 2.492700099945068 C 84.65773773193359 3.449612617492676 86.68978881835938 4.819725036621094 88.43502807617188 6.564974784851074 C 90.18027496337891 8.310212135314941 91.55038452148438 10.34226226806641 92.50730133056641 12.60464954376221 C 93.49778747558594 14.94641208648682 94 17.43457412719727 94 20 L 94 75 C 94 77.56542205810547 93.49778747558594 80.0535888671875 92.50730133056641 82.39534759521484 C 91.55038452148438 84.65773773193359 90.18027496337891 86.68978881835938 88.43502807617188 88.43502807617188 C 86.68978881835938 90.18027496337891 84.65773773193359 91.55038452148438 82.39534759521484 92.50730133056641 C 80.0535888671875 93.49778747558594 77.56542205810547 94 75 94 Z"/>
        <path class="cls-7" d="M 20 2 C 15.19203186035156 2 10.67182922363281 3.872329711914062 7.272071838378906 7.272071838378906 C 3.872329711914062 10.67182922363281 2 15.19203186035156 2 20 L 2 75 C 2 79.80796813964844 3.872329711914062 84.32817077636719 7.272071838378906 87.72791290283203 C 10.67182922363281 91.12767028808594 15.19203186035156 93 20 93 L 75 93 C 79.80796813964844 93 84.32817077636719 91.12767028808594 87.72791290283203 87.72791290283203 C 91.12767028808594 84.32817077636719 93 79.80796813964844 93 75 L 93 20 C 93 15.19203186035156 91.12767028808594 10.67182922363281 87.72791290283203 7.272071838378906 C 84.32817077636719 3.872329711914062 79.80796813964844 2 75 2 L 20 2 M 20 0 L 75 0 C 86.04568481445312 0 95 8.954299926757812 95 20 L 95 75 C 95 86.04568481445312 86.04568481445312 95 75 95 L 20 95 C 8.954299926757812 95 0 86.04568481445312 0 75 L 0 20 C 0 8.954299926757812 8.954299926757812 0 20 0 Z"/>
      </g>
      <text id="Independiente" class="cls-2" transform="translate(364 626)"><tspan x="16.503" y="19">Independiente</tspan></text>
    </g>
    <path id="Path_15" data-name="Path 15" class="cls-3" d="M20,0H75A20,20,0,0,1,95,20V75A20,20,0,0,1,75,95H20A20,20,0,0,1,0,75V20A20,20,0,0,1,20,0Z" transform="translate(777 2246)"/>
    <text id="Independiente-2" data-name="Independiente" class="cls-4" transform="translate(745 2352)"><tspan x="16.503" y="19">Independiente</tspan></text>
    <path id="untitled893" class="cls-5" d="M15,6.5a1,1,0,1,1-1-1A1,1,0,0,1,15,6.5Zm4,0a1,1,0,1,1-1-1A1,1,0,0,1,19,6.5ZM16,15A7.5,7.5,0,1,0,8.5,7.5,7.5,7.5,0,0,0,16,15ZM16,2a5.5,5.5,0,1,1-5.5,5.5A5.5,5.5,0,0,1,16,2Zm0,15A13,13,0,0,0,3,30v1a1,1,0,0,0,1,1H28a1,1,0,0,0,1-1V30A13,13,0,0,0,16,17ZM5,30s0,0,0,0a11,11,0,1,1,22,0v0H5Z" transform="translate(809 2276)"/>
  </g>
</svg>
