<svg xmlns="http://www.w3.org/2000/svg" viewBox="0 0 172 129">
  <defs>
    <style>
      .cls-1 {
        fill: #fff;
      }

      .cls-2 {
        fill: #8b8b8b;
        font-size: 16px;
        font-family: OpenSans-Semibold, Open Sans;
        font-weight: 600;
      }

      .cls-3 {
        fill: #605751;
      }

      .cls-4 {
        fill: #ec7404;
      }

      .cls-5, .cls-6 {
        stroke: none;
      }

      .cls-6 {
        fill: #d6d4d2;
      }
    </style>
  </defs>
  <g id="icono_inversiones_off" transform="translate(-669 -6042)">
    <g id="Group_36" data-name="Group 36" transform="translate(311 5522)">
      <g id="Path_14" data-name="Path 14" class="cls-1" transform="translate(396 520)">
        <path class="cls-5" d="M 75 94 L 20 94 C 17.43457412719727 94 14.94641208648682 93.49778747558594 12.60464954376221 92.50730133056641 C 10.34226226806641 91.55038452148438 8.310212135314941 90.18027496337891 6.564974784851074 88.43502807617188 C 4.819725036621094 86.68978881835938 3.449612617492676 84.65773773193359 2.492700099945068 82.39534759521484 C 1.502212524414062 80.0535888671875 1 77.56542205810547 1 75 L 1 20 C 1 17.43457412719727 1.502212524414062 14.94641208648682 2.492700099945068 12.60464954376221 C 3.449612617492676 10.34226226806641 4.819725036621094 8.310212135314941 6.564974784851074 6.564974784851074 C 8.310212135314941 4.819725036621094 10.34226226806641 3.449612617492676 12.60464954376221 2.492700099945068 C 14.94641208648682 1.502212524414062 17.43457412719727 1 20 1 L 75 1 C 77.56542205810547 1 80.0535888671875 1.502212524414062 82.39534759521484 2.492700099945068 C 84.65773773193359 3.449612617492676 86.68978881835938 4.819725036621094 88.43502807617188 6.564974784851074 C 90.18027496337891 8.310212135314941 91.55038452148438 10.34226226806641 92.50730133056641 12.60464954376221 C 93.49778747558594 14.94641208648682 94 17.43457412719727 94 20 L 94 75 C 94 77.56542205810547 93.49778747558594 80.0535888671875 92.50730133056641 82.39534759521484 C 91.55038452148438 84.65773773193359 90.18027496337891 86.68978881835938 88.43502807617188 88.43502807617188 C 86.68978881835938 90.18027496337891 84.65773773193359 91.55038452148438 82.39534759521484 92.50730133056641 C 80.0535888671875 93.49778747558594 77.56542205810547 94 75 94 Z"/>
        <path class="cls-6" d="M 20 2 C 15.19203186035156 2 10.67182922363281 3.872329711914062 7.272071838378906 7.272071838378906 C 3.872329711914062 10.67182922363281 2 15.19203186035156 2 20 L 2 75 C 2 79.80796813964844 3.872329711914062 84.32817077636719 7.272071838378906 87.72791290283203 C 10.67182922363281 91.12767028808594 15.19203186035156 93 20 93 L 75 93 C 79.80796813964844 93 84.32817077636719 91.12767028808594 87.72791290283203 87.72791290283203 C 91.12767028808594 84.32817077636719 93 79.80796813964844 93 75 L 93 20 C 93 15.19203186035156 91.12767028808594 10.67182922363281 87.72791290283203 7.272071838378906 C 84.32817077636719 3.872329711914062 79.80796813964844 2 75 2 L 20 2 M 20 0 L 75 0 C 86.04568481445312 0 95 8.954299926757812 95 20 L 95 75 C 95 86.04568481445312 86.04568481445312 95 75 95 L 20 95 C 8.954299926757812 95 0 86.04568481445312 0 75 L 0 20 C 0 8.954299926757812 8.954299926757812 0 20 0 Z"/>
      </g>
      <text id="Inversiones" class="cls-2" transform="translate(358 625)"><tspan x="41.547" y="17">Inversiones</tspan></text>
    </g>
    <path id="untitled371" class="cls-3" d="M31,9.635H23.5a1,1,0,0,0-1,1v7H17v-3a1,1,0,0,0-1-1H8.5a1,1,0,0,0-1,1v7H1a1,1,0,0,0-1,1v8a1,1,0,0,0,1,1H31a1,1,0,0,0,1-1v-20A1,1,0,0,0,31,9.635Zm-23.5,20H2v-6H7.5Zm7.5-11v11H9.5v-14H15Zm7.5,11H17v-10h5.5Zm7.5,0H24.5v-18H30ZM1.006,15.135a.99.99,0,0,0,.553-.168L12.951,7.373l4.429,3.543a1,1,0,0,0,1.188.046L30.041,3.143l.012.019.832,1.248L32,.666,28.111.251l.82,1.229L18.051,8.893,13.628,5.355A1,1,0,0,0,12.449,5.3l-12,8A1,1,0,0,0,1,15.136Z" transform="translate(737 6071.749)"/>
    <path id="untitled371-2" data-name="untitled371" class="cls-4" d="M1.006,15.135a.99.99,0,0,0,.553-.168L12.951,7.373l4.429,3.543a1,1,0,0,0,1.188.046L30.041,3.143l.012.019.832,1.248L32,.666,28.111.251l.82,1.229L18.051,8.893,13.628,5.355A1,1,0,0,0,12.449,5.3l-12,8A1,1,0,0,0,1,15.136Z" transform="translate(737 6071.749)"/>
  </g>
</svg>
