<svg xmlns="http://www.w3.org/2000/svg" viewBox="0 0 244 244">
  <defs>
    <style>
      .cls-1, .cls-4 {
        fill: none;
      }

      .cls-1 {
        stroke: #fff;
        stroke-width: 6px;
      }

      .cls-2 {
        fill: #fff;
      }

      .cls-3 {
        stroke: none;
      }
    </style>
  </defs>
  <g id="icono_nored" transform="translate(-250 -126)">
    <g id="Ellipse_5" data-name="Ellipse 5" class="cls-1" transform="translate(250 126)">
      <circle class="cls-3" cx="122" cy="122" r="122"/>
      <circle class="cls-4" cx="122" cy="122" r="119"/>
    </g>
    <path id="untitled471" class="cls-2" d="M60,13.1a16.6,16.6,0,0,0-3.418.358,21.587,21.587,0,0,0-38.69,4.877A14.189,14.189,0,0,0,14.4,17.9a14.4,14.4,0,0,0,0,28.8h4.966a19.183,19.183,0,0,0,38.069,0H60a16.8,16.8,0,0,0,0-33.6ZM24,44.3A14.377,14.377,0,0,1,46.73,32.576L26.678,52.63A14.306,14.306,0,0,1,24,44.3ZM38.4,58.7a14.322,14.322,0,0,1-8.33-2.674L50.124,35.972A14.377,14.377,0,0,1,38.4,58.7ZM60,41.9H57.432a19.183,19.183,0,0,0-38.069,0H14.4a9.6,9.6,0,1,1,0-19.2,9.494,9.494,0,0,1,4.118.941,2.4,2.4,0,0,0,3.391-1.716,16.785,16.785,0,0,1,31.387-4.562,2.4,2.4,0,0,0,2.89,1.169A12,12,0,1,1,59.993,41.9Z" transform="translate(334 217.5)"/>
  </g>
</svg>
