<svg xmlns="http://www.w3.org/2000/svg" viewBox="0 0 244 244">
  <defs>
    <style>
      .cls-1 {
        fill: #fff;
      }

      .cls-2 {
        fill: none;
        stroke: #fff;
        stroke-linecap: round;
        stroke-miterlimit: 10;
        stroke-width: 6px;
      }
    </style>
  </defs>
  <g id="icono_validando" transform="translate(-183 -245)">
    <path id="untitled226" class="cls-1" d="M38.14,54.953H36.308V39.383a11.008,11.008,0,0,0-6.6-10.075,11,11,0,0,0,6.6-10.075V3.664H38.14A1.832,1.832,0,0,0,38.14,0H8.832a1.832,1.832,0,0,0,0,3.664h1.832v15.57a11.006,11.006,0,0,0,6.6,10.075,11.006,11.006,0,0,0-6.6,10.075v15.57H8.832a1.832,1.832,0,0,0,0,3.664H38.14a1.832,1.832,0,0,0,0-3.664Zm-5.5-51.289V14.249L23.486,17.3l-9.159-3.054V3.662H32.645ZM14.327,19.233V18.111l8.58,2.861s0,0,0,0a1.862,1.862,0,0,0,.579.1,1.836,1.836,0,0,0,.581-.1l8.578-2.859v1.123a7.334,7.334,0,0,1-7.327,7.327H21.656a7.334,7.334,0,0,1-7.327-7.327Zm7.327,12.822h3.664a7.334,7.334,0,0,1,7.327,7.327v4.786l-8.58-2.859a1.813,1.813,0,0,0-1.158.005s0,0,0-.005l-8.58,2.859V39.383a7.334,7.334,0,0,1,7.327-7.327ZM14.327,48.03l9.159-3.052,9.159,3.052v6.922H14.327Z" transform="translate(309.117 329.169) rotate(45)"/>
    <path id="Path_3" data-name="Path 3" class="cls-2" d="M2,121A119,119,0,1,1,121,240" transform="translate(184 246)"/>
    <circle id="Ellipse_4" data-name="Ellipse 4" class="cls-1" cx="3.5" cy="3.5" r="3.5" transform="translate(183 376)"/>
  </g>
</svg>
