<svg xmlns="http://www.w3.org/2000/svg" viewBox="0 0 172 129">
  <defs>
    <style>
      .cls-1 {
        fill: #605751;
      }

      .cls-2 {
        fill: #8b8b8b;
        font-size: 16px;
        font-family: OpenSans-Semibold, Open Sans;
        font-weight: 600;
      }

      .cls-3 {
        fill: #fff;
      }

      .cls-4, .cls-5 {
        stroke: none;
      }

      .cls-5 {
        fill: #d6d4d2;
      }
    </style>
  </defs>
  <g id="icono_credito" transform="translate(-820 -5346)">
    <g id="Group_30" data-name="Group 30" transform="translate(462 4826)">
      <g id="Path_14" data-name="Path 14" class="cls-1" transform="translate(396 520)">
        <path class="cls-4" d="M 75 94 L 20 94 C 17.43457412719727 94 14.94641208648682 93.49778747558594 12.60464954376221 92.50730133056641 C 10.34226226806641 91.55038452148438 8.310212135314941 90.18027496337891 6.564974784851074 88.43502807617188 C 4.819725036621094 86.68978881835938 3.449612617492676 84.65773773193359 2.492700099945068 82.39534759521484 C 1.502212524414062 80.0535888671875 1 77.56542205810547 1 75 L 1 20 C 1 17.43457412719727 1.502212524414062 14.94641208648682 2.492700099945068 12.60464954376221 C 3.449612617492676 10.34226226806641 4.819725036621094 8.310212135314941 6.564974784851074 6.564974784851074 C 8.310212135314941 4.819725036621094 10.34226226806641 3.449612617492676 12.60464954376221 2.492700099945068 C 14.94641208648682 1.502212524414062 17.43457412719727 1 20 1 L 75 1 C 77.56542205810547 1 80.0535888671875 1.502212524414062 82.39534759521484 2.492700099945068 C 84.65773773193359 3.449612617492676 86.68978881835938 4.819725036621094 88.43502807617188 6.564974784851074 C 90.18027496337891 8.310212135314941 91.55038452148438 10.34226226806641 92.50730133056641 12.60464954376221 C 93.49778747558594 14.94641208648682 94 17.43457412719727 94 20 L 94 75 C 94 77.56542205810547 93.49778747558594 80.0535888671875 92.50730133056641 82.39534759521484 C 91.55038452148438 84.65773773193359 90.18027496337891 86.68978881835938 88.43502807617188 88.43502807617188 C 86.68978881835938 90.18027496337891 84.65773773193359 91.55038452148438 82.39534759521484 92.50730133056641 C 80.0535888671875 93.49778747558594 77.56542205810547 94 75 94 Z"/>
        <path class="cls-5" d="M 20 2 C 15.19203186035156 2 10.67182922363281 3.872329711914062 7.272071838378906 7.272071838378906 C 3.872329711914062 10.67182922363281 2 15.19203186035156 2 20 L 2 75 C 2 79.80796813964844 3.872329711914062 84.32817077636719 7.272071838378906 87.72791290283203 C 10.67182922363281 91.12767028808594 15.19203186035156 93 20 93 L 75 93 C 79.80796813964844 93 84.32817077636719 91.12767028808594 87.72791290283203 87.72791290283203 C 91.12767028808594 84.32817077636719 93 79.80796813964844 93 75 L 93 20 C 93 15.19203186035156 91.12767028808594 10.67182922363281 87.72791290283203 7.272071838378906 C 84.32817077636719 3.872329711914062 79.80796813964844 2 75 2 L 20 2 M 20 0 L 75 0 C 86.04568481445312 0 95 8.954299926757812 95 20 L 95 75 C 95 86.04568481445312 86.04568481445312 95 75 95 L 20 95 C 8.954299926757812 95 0 86.04568481445312 0 75 L 0 20 C 0 8.954299926757812 8.954299926757812 0 20 0 Z"/>
      </g>
      <text id="Crédito" class="cls-2" transform="translate(358 625)"><tspan x="57.785" y="17">Crédito</tspan></text>
    </g>
    <path id="untitled401" class="cls-3" d="M24.535,22.912a2.881,2.881,0,0,0-.914.14,28.8,28.8,0,0,0-2.758,1.134l-.006,0a1.924,1.924,0,0,0,.015-.305c-.028-.959-.715-1.733-2.041-2.3-.573-.246-1.335-.587-2.169-.961C12.346,18.689,10.68,18,9.938,18c-2.064,0-7.563,1.374-8.182,1.53A1,1,0,0,0,1,20.5v6a1,1,0,0,0,1,1H6.666C9.175,28.955,15.607,32,17.438,32c1.91,0,9.7-4.221,10.77-5.293a1.421,1.421,0,0,0,.294-1.6c-.468-1.13-2.4-2.2-3.966-2.2ZM17.436,30c-1.073,0-7.135-2.648-9.983-4.358a1,1,0,0,0-.514-.142H3V21.283A47.478,47.478,0,0,1,9.9,20a55.856,55.856,0,0,1,5.944,2.447c.845.379,1.618.724,2.2.974a2.121,2.121,0,0,1,.829.517h0c-.029.187-.457.6-.993.945l-4.036-1.794a1,1,0,1,0-.813,1.828l4.5,2a1,1,0,0,0,.178.058,2.025,2.025,0,0,0,.677.121,9.079,9.079,0,0,0,3.3-1.086,26.964,26.964,0,0,1,2.566-1.058.929.929,0,0,1,.281-.037,3.545,3.545,0,0,1,1.852.7C24.6,26.859,18.528,29.963,17.434,30ZM16.5,15.5A4.5,4.5,0,1,0,12,11,4.5,4.5,0,0,0,16.5,15.5Zm0-7A2.5,2.5,0,1,1,14,11,2.5,2.5,0,0,1,16.5,8.5Zm10,2.5A4.5,4.5,0,1,0,31,15.5,4.5,4.5,0,0,0,26.5,11Zm0,7A2.5,2.5,0,1,1,29,15.5,2.5,2.5,0,0,1,26.5,18Zm-1-9A4.5,4.5,0,1,0,21,4.5,4.5,4.5,0,0,0,25.5,9Zm0-7A2.5,2.5,0,1,1,23,4.5,2.5,2.5,0,0,1,25.5,2Z" transform="translate(884.999 5377)"/>
    <path id="untitled401-2" data-name="untitled401" class="cls-3" d="M25.5,9A4.5,4.5,0,1,0,21,4.5,4.5,4.5,0,0,0,25.5,9Zm0-7A2.5,2.5,0,1,1,23,4.5,2.5,2.5,0,0,1,25.5,2Z" transform="translate(885 5377)"/>
  </g>
</svg>
