<svg xmlns="http://www.w3.org/2000/svg" viewBox="0 0 200 200"><defs><style>.a{fill:#fff;}</style></defs><path class="a" d="M-3016.154-764.032a99.537,99.537,0,0,1-18.771-5.827,99.99,99.99,0,0,1-16.986-9.221,100.757,100.757,0,0,1-14.8-12.21,100.767,100.767,0,0,1-12.21-14.8,99.976,99.976,0,0,1-9.22-16.986,99.49,99.49,0,0,1-5.826-18.771A100.719,100.719,0,0,1-3096-862a100.718,100.718,0,0,1,2.032-20.154,99.481,99.481,0,0,1,5.826-18.77,99.95,99.95,0,0,1,9.22-16.987,100.711,100.711,0,0,1,12.21-14.8,100.71,100.71,0,0,1,14.8-12.211,99.981,99.981,0,0,1,16.986-9.22,99.461,99.461,0,0,1,18.771-5.827A100.731,100.731,0,0,1-2996-962a100.733,100.733,0,0,1,20.154,2.032,99.427,99.427,0,0,1,18.77,5.827,99.955,99.955,0,0,1,16.987,9.22,100.727,100.727,0,0,1,14.8,12.211,100.705,100.705,0,0,1,12.211,14.8,100,100,0,0,1,9.219,16.987,99.467,99.467,0,0,1,5.828,18.77A100.807,100.807,0,0,1-2896-862a100.808,100.808,0,0,1-2.031,20.154,99.476,99.476,0,0,1-5.828,18.771,99.958,99.958,0,0,1-9.219,16.986,100.713,100.713,0,0,1-12.211,14.8,100.717,100.717,0,0,1-14.8,12.21,100.029,100.029,0,0,1-16.987,9.221,99.5,99.5,0,0,1-18.77,5.827A100.733,100.733,0,0,1-2996-762,100.73,100.73,0,0,1-3016.154-764.032Zm1.209-190.058a93.509,93.509,0,0,0-17.645,5.477,94,94,0,0,0-15.968,8.667,94.6,94.6,0,0,0-13.911,11.478,94.736,94.736,0,0,0-11.479,13.911,94.053,94.053,0,0,0-8.666,15.968,93.509,93.509,0,0,0-5.478,17.644A94.706,94.706,0,0,0-3090-862a94.706,94.706,0,0,0,1.91,18.944,93.5,93.5,0,0,0,5.478,17.645,94.079,94.079,0,0,0,8.666,15.967,94.7,94.7,0,0,0,11.479,13.912,94.711,94.711,0,0,0,13.911,11.479,94.052,94.052,0,0,0,15.968,8.666,93.513,93.513,0,0,0,17.645,5.477A94.686,94.686,0,0,0-2996-768a94.689,94.689,0,0,0,18.944-1.91,93.507,93.507,0,0,0,17.645-5.477,94.015,94.015,0,0,0,15.968-8.666,94.744,94.744,0,0,0,13.912-11.479,94.722,94.722,0,0,0,11.478-13.912,93.946,93.946,0,0,0,8.667-15.967,93.5,93.5,0,0,0,5.478-17.645A94.706,94.706,0,0,0-2902-862a94.706,94.706,0,0,0-1.91-18.944,93.469,93.469,0,0,0-5.478-17.644,93.922,93.922,0,0,0-8.667-15.968,94.714,94.714,0,0,0-11.478-13.911,94.629,94.629,0,0,0-13.912-11.478,93.987,93.987,0,0,0-15.968-8.667,93.5,93.5,0,0,0-17.645-5.477A94.7,94.7,0,0,0-2996-956,94.691,94.691,0,0,0-3014.944-954.09ZM-3016-862a20.023,20.023,0,0,1,20-20,20.022,20.022,0,0,1,20,20,20.022,20.022,0,0,1-20,20A20.022,20.022,0,0,1-3016-862Zm3.636,0A16.382,16.382,0,0,0-2996-845.636,16.382,16.382,0,0,0-2979.636-862,16.382,16.382,0,0,0-2996-878.364,16.383,16.383,0,0,0-3012.364-862Zm8.907,7.457a1.817,1.817,0,0,1,0-2.57A10.472,10.472,0,0,1-2996-860.2a10.472,10.472,0,0,1,7.457,3.089,1.817,1.817,0,0,1,0,2.57,1.818,1.818,0,0,1-2.571,0,6.866,6.866,0,0,0-4.885-2.023,6.867,6.867,0,0,0-4.885,2.023,1.813,1.813,0,0,1-1.286.533A1.81,1.81,0,0,1-3003.457-854.544Zm13.5-9.621a2.439,2.439,0,0,1-.71-1.714,2.439,2.439,0,0,1,.71-1.714,2.442,2.442,0,0,1,1.715-.71,2.442,2.442,0,0,1,1.714.71,2.438,2.438,0,0,1,.71,1.714,2.439,2.439,0,0,1-.71,1.714,2.442,2.442,0,0,1-1.714.71A2.443,2.443,0,0,1-2989.957-864.165Zm-15.515,0a2.443,2.443,0,0,1-.71-1.714,2.442,2.442,0,0,1,.71-1.714,2.441,2.441,0,0,1,1.714-.71,2.442,2.442,0,0,1,1.714.71,2.438,2.438,0,0,1,.71,1.714,2.439,2.439,0,0,1-.71,1.714,2.442,2.442,0,0,1-1.714.71A2.443,2.443,0,0,1-3005.472-864.165Z" transform="translate(3096 962)"/></svg>